:FULLY-SPECIFIED
:FORCE-ALL-JOINTS-BE-3DOF
:DEGREES
3160
root 0.95161 16.9233 -33.3627 1086.06 5.2151 -3.75778
lfemur -18.6251 -2.46475 -8.23569
ltibia 35.2657 0 0
lfoot -16.3905 7.6636 0
ltoes -40.6687 0 0
rfemur -19.4091 -0.203187 18.4941
rtibia 39.0033 0 0
rfoot -12.155 -21.063 0
rtoes -16.3984 0 0
lowerback 5.78247 1.52498 -0.530088
upperback -4.08635 2.13047 1.85257
thorax -7.62501 1.13143 1.98061
lowerneck -5.41225 -5.14662 -7.88932
upperneck 9.35378 -6.79989 5.98461
head 4.15006 -3.3425 2.73131
lclavicle 5.92273e-16 -2.71655e-15 0
lhumerus -33.4232 -18.3519 94.8098
lradius 51.44 0 0
lwrist -8.98357 0 0
lhand -34.0947 389.411 0
lfingers 7.12502 0 0
lthumb -7.27093 -660.735 0
rclavicle 5.92273e-16 -2.71655e-15 0
rhumerus -35.544 14.0283 -81.365
rradius 50.4644 0 0
rwrist 1.68417 0 0
rhand -29.2652 -394.138 0
rfingers 7.12502 0 0
rthumb -2.60778 295.899 0
3161
root 0.955966 16.9249 -33.3593 1086.06 5.17601 -3.78012
lfemur -18.5788 -2.47891 -8.23859
ltibia 35.2319 0 0
lfoot -16.3778 7.7151 0
ltoes -40.6544 0 0
rfemur -19.3606 -0.179263 18.4942
rtibia 38.9224 0 0
rfoot -12.1291 -21.0406 0
rtoes -16.3956 0 0
lowerback 5.76211 1.53085 -0.53654
upperback -4.09934 2.13781 1.85253
thorax -7.62766 1.13549 1.98358
lowerneck -5.44056 -5.14336 -7.88312
upperneck 9.42039 -6.79622 5.98411
head 4.17289 -3.34016 2.72681
lclavicle 5.20087e-16 -2.86121e-15 0
lhumerus -33.4284 -18.1933 94.7493
lradius 51.1647 0 0
lwrist -9.08283 0 0
lhand -34.1146 389.387 0
lfingers 7.12502 0 0
lthumb -7.29016 -660.759 0
rclavicle 5.20087e-16 -2.86121e-15 0
rhumerus -35.5465 13.8448 -81.334
rradius 50.0775 0 0
rwrist 1.80713 0 0
rhand -29.2374 -394.148 0
rfingers 7.12502 0 0
rthumb -2.58093 295.888 0
3162
root 0.960323 16.9265 -33.3559 1086.05 5.14363 -3.79841
lfemur -18.5407 -2.49032 -8.24102
ltibia 35.2042 0 0
lfoot -16.3675 7.75746 0
ltoes -40.6425 0 0
rfemur -19.321 -0.159645 18.4943
rtibia 38.8561 0 0
rfoot -12.108 -21.022 0
rtoes -16.3933 0 0
lowerback 5.74547 1.5357 -0.541826
upperback -4.11003 2.14389 1.85252
thorax -7.62992 1.13885 1.98601
lowerneck -5.46371 -5.14057 -7.878
upperneck 9.47506 -6.79308 5.98367
head 4.19162 -3.33817 2.72315
lclavicle 4.56895e-16 -2.97698e-15 0
lhumerus -33.432 -18.0625 94.6994
lradius 50.9366 0 0
lwrist -9.16533 0 0
lhand -34.1308 389.369 0
lfingers 7.12502 0 0
lthumb -7.30578 -660.778 0
rclavicle 4.56895e-16 -2.97698e-15 0
rhumerus -35.5483 13.6936 -81.3085
rradius 49.7593 0 0
rwrist 1.90735 0 0
rhand -29.2135 -394.157 0
rfingers 7.12502 0 0
rthumb -2.55791 295.88 0
3163
root 0.964679 16.9281 -33.3525 1086.05 5.11732 -3.81293
lfemur -18.5101 -2.49912 -8.24304
ltibia 35.1821 0 0
lfoot -16.3594 7.7914 0
ltoes -40.6326 0 0
rfemur -19.2895 -0.144005 18.4944
rtibia 38.8035 0 0
rfoot -12.0913 -21.0071 0
rtoes -16.3914 0 0
lowerback 5.73226 1.53963 -0.546033
upperback -4.11863 2.14882 1.85253
thorax -7.63183 1.14157 1.98796
lowerneck -5.48206 -5.13819 -7.87385
upperneck 9.51873 -6.79039 5.98331
head 4.20657 -3.33649 2.72026
lclavicle 4.00644e-16 -3.06505e-15 0
lhumerus -33.4337 -17.9572 94.6592
lradius 50.7511 0 0
lwrist -9.23271 0 0
lhand -34.1434 389.354 0
lfingers 7.12502 0 0
lthumb -7.318 -660.792 0
rclavicle 4.00644e-16 -3.06505e-15 0
rhumerus -35.5495 13.5721 -81.2879
rradius 49.5042 0 0
rwrist 1.98636 0 0
rhand -29.193 -394.163 0
rfingers 7.12502 0 0
rthumb -2.53808 295.874 0
3164
root 0.969035 16.9297 -33.3491 1086.05 5.09646 -3.82399
lfemur -18.4863 -2.50544 -8.24471
ltibia 35.1652 0 0
lfoot -16.3532 7.81765 0
ltoes -40.6247 0 0
rfemur -19.2657 -0.132019 18.4944
rtibia 38.7635 0 0
rfoot -12.0787 -20.9953 0
rtoes -16.3899 0 0
lowerback 5.72224 1.54273 -0.549246
upperback -4.12531 2.15272 1.85258
thorax -7.63347 1.14372 1.98947
lowerneck -5.49598 -5.13614 -7.87057
upperneck 9.5523 -6.78805 5.98299
head 4.21805 -3.33507 2.7181
lclavicle 3.49278e-16 -3.12663e-15 0
lhumerus -33.4334 -17.875 94.6279
lradius 50.604 0 0
lwrist -9.28663 0 0
lhand -34.1528 389.345 0
lfingers 7.12502 0 0
lthumb -7.32705 -660.802 0
rclavicle 3.49278e-16 -3.12663e-15 0
rhumerus -35.5502 13.4775 -81.2718
rradius 49.3068 0 0
rwrist 2.04567 0 0
rhand -29.1751 -394.166 0
rfingers 7.12502 0 0
rthumb -2.52083 295.87 0
3165
root 0.973391 16.9313 -33.3457 1086.05 5.08044 -3.83188
lfemur -18.4688 -2.50944 -8.24607
ltibia 35.1529 0 0
lfoot -16.3489 7.83695 0
ltoes -40.6183 0 0
rfemur -19.2488 -0.12336 18.4944
rtibia 38.7349 0 0
rfoot -12.0699 -20.9864 0
rtoes -16.3888 0 0
lowerback 5.71514 1.54509 -0.551553
upperback -4.13027 2.15571 1.85265
thorax -7.63488 1.14536 1.99057
lowerneck -5.50584 -5.13435 -7.86808
upperneck 9.57671 -6.78598 5.98272
head 4.22638 -3.33385 2.71661
lclavicle 3.00743e-16 -3.16292e-15 0
lhumerus -33.4309 -17.8137 94.6046
lradius 50.4908 0 0
lwrist -9.32874 0 0
lhand -34.1591 389.339 0
lfingers 7.12502 0 0
lthumb -7.33315 -660.808 0
rclavicle 3.00743e-16 -3.16292e-15 0
rhumerus -35.5503 13.4072 -81.2597
rradius 49.1615 0 0
rwrist 2.08679 0 0
rhand -29.1593 -394.168 0
rfingers 7.12502 0 0
rthumb -2.5055 295.868 0
3166
root 0.977747 16.9329 -33.3423 1086.05 5.06864 -3.83689
lfemur -18.4568 -2.51124 -8.24718
ltibia 35.1449 0 0
lfoot -16.3463 7.85003 0
ltoes -40.6133 0 0
rfemur -19.2382 -0.117703 18.4943
rtibia 38.7167 0 0
rfoot -12.0645 -20.98 0
rtoes -16.388 0 0
lowerback 5.71068 1.54679 -0.55304
upperback -4.1337 2.1579 1.85277
thorax -7.63613 1.14655 1.99132
lowerneck -5.512 -5.13275 -7.86626
upperneck 9.59287 -6.7841 5.98248
head 4.23187 -3.33279 2.71573
lclavicle 2.52986e-16 -3.17513e-15 0
lhumerus -33.4262 -17.7707 94.5884
lradius 50.4071 0 0
lwrist -9.36068 0 0
lhand -34.1626 389.338 0
lfingers 7.12502 0 0
lthumb -7.33653 -660.809 0
rclavicle 2.52986e-16 -3.17513e-15 0
rhumerus -35.5498 13.3585 -81.2512
rradius 49.0628 0 0
rwrist 2.11123 0 0
rhand -29.1447 -394.168 0
rfingers 7.12502 0 0
rthumb -2.49147 295.868 0
3167
root 0.982103 16.9345 -33.3389 1086.05 5.06042 -3.83932
lfemur -18.4496 -2.51098 -8.2481
ltibia 35.1407 0 0
lfoot -16.3452 7.85763 0
ltoes -40.6094 0 0
rfemur -19.2332 -0.114722 18.4942
rtibia 38.7078 0 0
rfoot -12.0623 -20.9758 0
rtoes -16.3874 0 0
lowerback 5.70861 1.54794 -0.553793
upperback -4.13578 2.15941 1.85292
thorax -7.63727 1.14736 1.99175
lowerneck -5.51484 -5.13126 -7.86504
upperneck 9.60171 -6.78233 5.98226
head 4.23483 -3.33185 2.71541
lclavicle 2.03951e-16 -3.16446e-15 0
lhumerus -33.4191 -17.7439 94.5783
lradius 50.3486 0 0
lwrist -9.38409 0 0
lhand -34.1635 389.341 0
lfingers 7.12502 0 0
lthumb -7.33739 -660.807 0
rclavicle 2.03951e-16 -3.16446e-15 0
rhumerus -35.5486 13.3287 -81.2458
rradius 49.0053 0 0
rwrist 2.1205 0 0
rhand -29.1309 -394.166 0
rfingers 7.12502 0 0
rthumb -2.47811 295.87 0
